<svg width="20" height="20" viewBox="0 0 20 20" fill="none" xmlns="http://www.w3.org/2000/svg">
<path d="M6.81154 6.11155C6.81154 4.34953 8.23842 2.92266 10.0004 2.92266C11.7624 2.92266 13.1893 4.34953 13.1893 6.11155C13.1893 7.87356 11.7624 9.30043 10.0004 9.30043C8.23842 9.30043 6.81154 7.87356 6.81154 6.11155ZM2.92266 14.8615C2.92266 14.4721 3.11218 14.0792 3.54765 13.6773C3.98788 13.271 4.63116 12.9045 5.39842 12.5971C6.93407 11.9819 8.79002 11.6727 10.0004 11.6727C11.2108 11.6727 13.0668 11.9819 14.6025 12.5971C15.3697 12.9045 16.013 13.271 16.4532 13.6773C16.8887 14.0792 17.0782 14.4721 17.0782 14.8615V17.0782H2.92266V14.8615Z" stroke="black" stroke-width="1.4"/>
</svg>
