<svg width="15" height="32" viewBox="0 0 15 32" fill="none" xmlns="http://www.w3.org/2000/svg">
<path d="M9.375 -0.0019517C12.4766 -0.00195143 15 2.4686 15 5.50529L15 23.9851C15 28.0341 11.6355 31.3281 7.5 31.3281C3.3645 31.3281 3.15332e-06 28.0341 3.5126e-06 23.9851L5.15239e-06 5.50529L1.875 5.50529L1.875 23.9851C1.875 27.0218 4.39838 29.4924 7.5 29.4924C10.6016 29.4924 13.125 27.0218 13.125 23.9851L13.125 5.50529C13.125 3.48083 11.4428 1.8338 9.375 1.8338C7.30725 1.83379 5.625 3.48083 5.625 5.50529L5.625 20.3136C5.625 21.3259 6.46613 22.1494 7.5 22.1494C8.53388 22.1494 9.375 21.3259 9.375 20.3136L9.375 5.50529L11.25 5.50529L11.25 20.3136C11.25 22.3381 9.56775 23.9851 7.5 23.9851C5.43225 23.9851 3.75 22.3381 3.75 20.3136L3.75 5.50529C3.75 2.4686 6.27338 -0.00195197 9.375 -0.0019517Z" fill="#8E9BAB"/>
</svg>
