<svg width="20" height="20" viewBox="0 0 20 20" fill="none" xmlns="http://www.w3.org/2000/svg">
<path d="M2.49935 3.2H16.666C16.7377 3.2 16.7993 3.2616 16.7993 3.33333V8.33333C16.7993 8.40507 16.7377 8.46667 16.666 8.46667H2.49935C2.42762 8.46667 2.36602 8.40507 2.36602 8.33333V3.33333C2.36602 3.2616 2.42761 3.2 2.49935 3.2ZM2.49935 11.5333H16.666C16.7377 11.5333 16.7993 11.5949 16.7993 11.6667V16.6667C16.7993 16.7384 16.7377 16.8 16.666 16.8H2.49935C2.42762 16.8 2.36602 16.7384 2.36602 16.6667V11.6667C2.36602 11.5949 2.42761 11.5333 2.49935 11.5333Z" stroke="black" stroke-width="1.4"/>
</svg>
