<svg width="20" height="20" viewBox="0 0 20 20" fill="none" xmlns="http://www.w3.org/2000/svg">
<path d="M10 0C4.48645 0 0 4.48566 0 10C0 15.5143 4.48645 20 10 20C15.5143 20 20 15.5143 20 10C20 4.48566 15.5136 0 10 0ZM10 18.4508C5.34004 18.4508 1.54918 14.66 1.54918 10C1.54918 5.34004 5.34004 1.54918 10 1.54918C14.66 1.54918 18.4508 5.34004 18.4508 10C18.4508 14.66 14.66 18.4508 10 18.4508Z" fill="black"/>
<path d="M13.8721 9.15625H6.12617C5.69859 9.15625 5.35156 9.50328 5.35156 9.93086C5.35156 10.3584 5.69859 10.7055 6.12617 10.7055H13.8721C14.2997 10.7055 14.6467 10.3584 14.6467 9.93086C14.6467 9.50328 14.2997 9.15625 13.8721 9.15625Z" fill="black"/>
</svg>
