<svg width="20" height="20" viewBox="0 0 20 20" fill="none" xmlns="http://www.w3.org/2000/svg">
<path d="M10 0C4.48566 0 0 4.48566 0 10C0 15.5143 4.48566 20 10 20C15.5143 20 20 15.5136 20 10C20 4.48645 15.5143 0 10 0ZM10 18.4508C5.34082 18.4508 1.54918 14.66 1.54918 10C1.54918 5.34004 5.34082 1.54918 10 1.54918C14.6592 1.54918 18.4508 5.34004 18.4508 10C18.4508 14.66 14.66 18.4508 10 18.4508Z" fill="white"/>
<path d="M13.8721 9.15422H10.7738V6.05586C10.7738 5.62828 10.4275 5.28125 9.99914 5.28125C9.57078 5.28125 9.22453 5.62828 9.22453 6.05586V9.15422H6.12617C5.69781 9.15422 5.35156 9.50125 5.35156 9.92883C5.35156 10.3564 5.69781 10.7034 6.12617 10.7034H9.22453V13.8018C9.22453 14.2294 9.57078 14.5764 9.99914 14.5764C10.4275 14.5764 10.7738 14.2294 10.7738 13.8018V10.7034H13.8721C14.3005 10.7034 14.6467 10.3564 14.6467 9.92883C14.6467 9.50125 14.3005 9.15422 13.8721 9.15422Z" fill="white"/>
</svg>
