<svg width="57" height="57" viewBox="0 0 57 57" fill="none" xmlns="http://www.w3.org/2000/svg">
<circle cx="28.5" cy="28.5" r="28.5" fill="#5A8FF8"/>
<path fill-rule="evenodd" clip-rule="evenodd" d="M30.1593 31.6851V29.6082C30.1665 29.4274 30.1324 29.2474 30.0596 29.081C29.9897 28.935 29.8811 28.8098 29.7451 28.7183C29.5663 28.5922 29.3592 28.5095 29.141 28.4772C29.3559 28.387 29.5468 28.2502 29.6991 28.0771C29.9158 27.8116 30.0251 27.4004 30.0308 26.8414V26.0563C30.0193 24.8187 29.4012 24.1906 28.1764 24.1719H24.0859V25.3178H24.8012V31.6832H24.0859V32.8311H26.2434V29.0922H27.8638C28.1105 29.0711 28.3561 29.1426 28.5504 29.2922C28.688 29.4697 28.7511 29.6917 28.7268 29.9129V32.8311H30.8919V31.6851H30.1593ZM28.6252 27.1667C28.6252 27.4789 28.5312 27.6883 28.3528 27.793C28.1539 27.8915 27.9311 27.9354 27.7085 27.9201H26.251V25.3216H27.7526C27.8717 25.3108 27.9918 25.3231 28.106 25.3577C28.2202 25.3924 28.3263 25.4487 28.418 25.5235C28.5542 25.6674 28.6194 25.9254 28.6194 26.303L28.6252 27.1667Z" fill="white"/>
<path fill-rule="evenodd" clip-rule="evenodd" d="M38.0967 30.083V32.8311H32.1211V31.6832H32.8556V25.3178H32.1211V24.1719H38.0123V26.8171H36.6795V25.3178H34.2881V27.821H36.9077V29.0006H34.2881V31.6832H36.7524V30.083H38.0967Z" fill="white"/>
<path fill-rule="evenodd" clip-rule="evenodd" d="M47.6834 25.3178V31.6832H48.4313V32.8311H46.3429V26.3142L44.4309 30.4214H43.4491L41.5966 26.4601V32.8311H39.5273V31.6832H40.3059V25.3178H39.5273V24.1719H41.7768L43.9496 28.8529L46.0898 24.1719H48.4313V25.3178H47.6834Z" fill="white"/>
<path d="M30.1593 31.6851V29.6082C30.1665 29.4274 30.1324 29.2474 30.0596 29.081C29.9897 28.935 29.8811 28.8098 29.7451 28.7183C29.5663 28.5922 29.3592 28.5095 29.141 28.4772C29.3559 28.387 29.5468 28.2502 29.6991 28.0771C29.9158 27.8116 30.0251 27.4004 30.0308 26.8414V26.0563C30.0193 24.8187 29.4012 24.1906 28.1764 24.1719H24.0859V25.3178H24.8012V31.6832H24.0859V32.8311H26.2434V29.0922H27.8638C28.1105 29.0711 28.3561 29.1426 28.5504 29.2922C28.688 29.4697 28.7511 29.6917 28.7268 29.9129V32.8311H30.8919V31.6851H30.1593ZM28.6252 27.1667C28.6252 27.4789 28.5312 27.6883 28.3528 27.793C28.1539 27.8915 27.9311 27.9354 27.7085 27.9201H26.251V25.3216H27.7526C27.8717 25.3108 27.9918 25.3231 28.106 25.3577C28.2202 25.3924 28.3263 25.4487 28.418 25.5235C28.5542 25.6674 28.6194 25.9254 28.6194 26.303L28.6252 27.1667Z" fill="white"/>
<path d="M36.7524 30.083H38.0967V32.8311H32.1211V31.6832H32.8556V25.3178H32.1211V24.1719H38.0123V26.8171H36.6795V25.3178H34.2881V27.821H36.9077V29.0006H34.2881V31.6832H36.7524V30.083Z" fill="white"/>
<path d="M47.6834 25.3178V31.6832H48.4313V32.8311H46.3429V26.3142L44.4309 30.4214H43.4491L41.5966 26.4601V32.8311H39.5273V31.6832H40.3059V25.3178H39.5273V24.1719H41.7768L43.9496 28.8529L46.0898 24.1719H48.4313V25.3178H47.6834Z" fill="white"/>
<path d="M19.6367 23.7891H9.79883V33.2147H19.6367V23.7891Z" fill="white"/>
<path d="M19.6367 23.7891H9.79883V33.2147H19.6367V23.7891Z" fill="white"/>
<path d="M30.1592 31.6836V29.6067C30.1663 29.4259 30.1323 29.2459 30.0594 29.0795C29.9895 28.9335 29.881 28.8084 29.7449 28.7169C29.5662 28.5907 29.3591 28.508 29.1409 28.4757C29.3557 28.3856 29.5466 28.2487 29.6989 28.0756C29.9156 27.8102 30.0249 27.3989 30.0307 26.8399V26.0548C30.0192 24.8172 29.401 24.1891 28.1763 24.1704H24.0858V25.3164H24.8011V31.6818H24.0858V32.8296H26.2432V29.0907H27.8637C28.1103 29.0696 28.3559 29.1412 28.5502 29.2908C28.6878 29.4683 28.7509 29.6902 28.7266 29.9114V32.8296H30.8917V31.6836H30.1592ZM28.625 27.1652C28.625 27.4774 28.531 27.6868 28.3527 27.7915C28.1537 27.89 27.931 27.934 27.7083 27.9186H26.2509V25.3201H27.7524C27.8715 25.3093 27.9916 25.3216 28.1058 25.3563C28.2201 25.3909 28.3261 25.4472 28.4179 25.522C28.554 25.6659 28.6192 25.9239 28.6192 26.3016L28.625 27.1652ZM36.7542 30.0815V31.6818H34.288V28.9991H36.9076V27.8195H34.288V25.3164H36.6794V26.8119H38.0122V24.1704H32.121V25.3164H32.8555V31.6818H32.121V32.8296H38.0966V30.0815H36.7542ZM48.4331 25.3164V24.1704H46.0896L43.9494 28.844L41.7767 24.1704H39.5272V25.3164H40.3058V31.6818H39.5272V32.8296H41.5964V26.4586L43.4489 30.4124H44.4365L46.3543 26.2997V32.8296H48.4426V31.6818H47.6947V25.3257L48.4331 25.3164ZM48.4331 25.3164V24.1704H46.0896L43.9494 28.844L41.7767 24.1704H39.5272V25.3164H40.3058V31.6818H39.5272V32.8296H41.5964V26.4586L43.4489 30.4124H44.4365L46.3543 26.2997V32.8296H48.4426V31.6818H47.6947V25.3257L48.4331 25.3164ZM36.7542 31.6818H34.288V28.9991H36.9076V27.8195H34.288V25.3164H36.6794V26.8119H38.0122V24.1704H32.121V25.3164H32.8555V31.6818H32.121V32.8296H38.0966V30.0815H36.7542V31.6818ZM30.1611 29.6067C30.1683 29.4259 30.1342 29.2459 30.0614 29.0795C29.9914 28.9335 29.8829 28.8084 29.7469 28.7169C29.5681 28.5907 29.361 28.508 29.1428 28.4757C29.3577 28.3856 29.5485 28.2487 29.7008 28.0756C29.9175 27.8102 30.0268 27.3989 30.0326 26.8399V26.0548C30.0211 24.8172 29.403 24.1891 28.1782 24.1704H24.0858V25.3164H24.8011V31.6818H24.0858V32.8296H26.2432V29.0907H27.8637C28.1103 29.0696 28.3559 29.1412 28.5502 29.2908C28.6878 29.4683 28.7509 29.6902 28.7266 29.9114V32.8296H30.8917V31.6836H30.1592L30.1611 29.6067ZM28.6269 27.1652C28.6269 27.4774 28.5329 27.6868 28.3546 27.7915C28.1556 27.89 27.9329 27.934 27.7103 27.9186H26.2528V25.3201H27.7524C27.8715 25.3093 27.9916 25.3216 28.1058 25.3563C28.2201 25.3909 28.3261 25.4472 28.4179 25.522C28.554 25.6659 28.6192 25.9239 28.6192 26.3016L28.6269 27.1652ZM8 22V35H52V22H8ZM20.5207 34.1064H8.91475V22.8898H20.5207V34.1064ZM51.0833 34.1064H21.4374V22.8898H51.0833V34.1064ZM41.5964 26.4586L43.4489 30.4124H44.4365L46.3543 26.2997V32.8296H48.4426V31.6818H47.6947V25.3257H48.4426V24.1704H46.0896L43.9494 28.844L41.7767 24.1704H39.5272V25.3164H40.3058V31.6818H39.5272V32.8296H41.5964V26.4586ZM38.0966 30.0815H36.7542V31.6818H34.288V28.9991H36.9076V27.8195H34.288V25.3164H36.6794V26.8119H38.0122V24.1704H32.121V25.3164H32.8555V31.6818H32.121V32.8296H38.0966V30.0815ZM26.2432 29.0851H27.8637C28.1111 29.0656 28.3568 29.1391 28.5502 29.2908C28.6878 29.4683 28.7509 29.6902 28.7266 29.9114V32.8296H30.8917V31.6836H30.1592V29.6067C30.1663 29.4259 30.1323 29.2459 30.0594 29.0795C29.9895 28.9335 29.881 28.8084 29.7449 28.7169C29.5662 28.5907 29.3591 28.508 29.1409 28.4757C29.3557 28.3856 29.5466 28.2487 29.6989 28.0756C29.9156 27.8102 30.0249 27.3989 30.0307 26.8399V26.0548C30.0192 24.8172 29.401 24.1891 28.1763 24.1704H24.0858V25.3164H24.8011V31.6818H24.0858V32.8296H26.2432V29.0851ZM26.2432 25.3201H27.7524C27.8715 25.3093 27.9916 25.3216 28.1058 25.3563C28.2201 25.3909 28.3261 25.4472 28.4179 25.522C28.554 25.6659 28.6192 25.9239 28.6192 26.3016V27.1652C28.6192 27.4774 28.5253 27.6868 28.3469 27.7915C28.1479 27.89 27.9252 27.934 27.7026 27.9186H26.2451L26.2432 25.3201Z" fill="white"/>
<path d="M19.6367 23.7891H9.79883V33.2147H19.6367V23.7891Z" fill="white"/>
</svg>
