<svg width="21" height="19" viewBox="0 0 21 19" fill="none" xmlns="http://www.w3.org/2000/svg">
<path d="M19.7493 7.18699L2.80602 0.156495C2.09223 -0.13972 1.28582 -0.00941363 0.701549 0.496391C0.117281 1.00228 -0.12709 1.78174 0.0638787 2.53056L1.57198 8.44469H8.95587C9.29564 8.44469 9.57115 8.72015 9.57115 9.05997C9.57115 9.39974 9.29569 9.67524 8.95587 9.67524H1.57198L0.0638787 15.5893C-0.12709 16.3382 0.11724 17.1177 0.701549 17.6235C1.28701 18.1303 2.0935 18.259 2.80606 17.9634L19.7494 10.9329C20.5208 10.6129 21 9.89517 21 9.05997C21 8.22476 20.5208 7.50703 19.7493 7.18699Z" fill="white"/>
</svg>
